<?xml version="1.0" ?><svg style="enable-background:new 0 0 512 512;" version="1.1" viewBox="0 0 512 512" xml:space="preserve" xmlns="http://www.w3.org/2000/svg" xmlns:xlink="http://www.w3.org/1999/xlink"><style type="text/css">
	.st0{fill:#C8C6CC;}
	.st1{fill:#78CBED;}
	.st2{fill:#34B6E2;}
	.st3{fill:#FFFFFF;}
	.st4{fill:#F6D6C5;}
	.st5{fill:#C76D33;}
	.st6{fill:#DF8A57;}
	.st7{fill:#FFD6BC;}
	.st8{fill:#F85647;}
	.st9{fill:#FFB88C;}
	.st10{fill:#FF97C1;}
	.st11{fill:#00C755;}
	.st12{fill:#55D47B;}
	.st13{fill:#FF9A5C;}
	.st14{fill:#F54432;}
	.st15{fill:#948EA3;}
	.st16{fill:#FD7A6E;}
	.st17{fill:#77728D;}
	.st18{fill:none;}
	.st19{fill:#FF7E27;}
	.st20{fill:#EAAA83;}
	.st21{fill:#E83826;}
</style><g id="Layer_1"/><g id="Layer_2"/><g id="Layer_3"/><g id="Layer_4"/><g id="Layer_5"/><g id="Layer_6"/><g id="Layer_7"/><g id="Layer_8"/><g id="Layer_9"/><g id="Layer_10"/><g id="Layer_11"/><g id="Layer_12"/><g id="Layer_13"/><g id="Layer_14"/><g id="Layer_15"/><g id="Layer_16"/><g id="Layer_17"/><g id="Layer_18"/><g id="Layer_19"/><g id="Layer_20"/><g id="Layer_21"/><g id="Layer_22"/><g id="Layer_23"/><g id="Layer_24"/><g id="Layer_25"/><g id="Layer_26"/><g id="Layer_27"/><g id="Layer_28"/><g id="Layer_29"/><g id="Layer_30"/><g id="Layer_31"/><g id="Layer_32"/><g id="Layer_33"/><g id="Layer_34"/><g id="Layer_35"/><g id="Layer_36"/><g id="Layer_37"/><g id="Layer_38"/><g id="Layer_39"/><g id="Layer_40"/><g id="Layer_41"/><g id="Layer_42"/><g id="Layer_43"/><g id="Layer_44"/><g id="Layer_45"/><g id="Layer_46"/><g id="Layer_47"/><g id="Layer_48"/><g id="Layer_49"/><g id="Layer_50"><g><path class="st1" d="M484.239,407.784L484.239,407.784c-17.765-8.349-38.282-8.154-55.89,0.532l-4.327,2.134    c-8.74,4.311-18.977,4.15-27.581-0.436l0,0c-18.214-9.706-39.868-10.119-58.428-1.113l-4.022,1.951    c-8.404,4.078-18.177,4.046-26.555-0.086l-5.388-2.658c-17.368-8.567-37.579-8.879-55.195-0.853l-10.518,4.792    c-7.391,3.367-15.794,3.62-23.368,0.704l-22.434-8.638c-15.857-6.106-33.431-5.7-48.998,1.132l-15.841,6.952    c-7.453,3.271-15.88,3.399-23.426,0.356l-19.018-7.669c-16.319-6.581-34.561-6.202-50.602,1.051l-5.077,2.296    c-9.437,4.267-20.072-2.75-20.072-13.244V376.02c0-10.293,8.214-18.637,18.346-18.637h460.308    c10.132,0,18.346,8.344,18.346,18.637v18.607C504.5,405.211,493.696,412.228,484.239,407.784z"/><path class="st2" d="M428.349,408.315l-4.327,2.135c-8.74,4.311-18.977,4.149-27.581-0.436h0    c-18.214-9.707-39.868-10.119-58.428-1.113l-4.022,1.951c-8.404,4.078-18.177,4.046-26.555-0.086l-5.388-2.658    c-17.368-8.567-37.579-8.879-55.195-0.853l-10.518,4.792c-7.391,3.367-15.794,3.62-23.368,0.704l-22.434-8.638    c-15.857-6.106-33.431-5.7-48.998,1.132l-15.841,6.952c-7.453,3.271-15.88,3.399-23.426,0.356l-19.018-7.669    c-5.98-2.412-12.218-3.879-18.511-4.426l24.13,56.052c9.057,21.039,29.516,34.634,52.119,34.634h230.022    c22.603,0,43.062-13.595,52.119-34.634l23.235-53.972C440.181,403.56,434.109,405.474,428.349,408.315z"/><path class="st6" d="M486.726,309.794c-0.696-22.329-12.976-42.596-31.759-54.213c-33.962-21.004-108.547-58.362-211.068-55.688    c-88.473,2.308-152.959,33.261-186.316,53.458c-18.177,11.006-30.367,30.113-32.059,51.542c-0.21,2.665-0.313,5.434-0.282,8.298    c0.229,21.288,7.699,36.987,11.704,44.191h435.131c3.792-5.2,14.649-21.478,14.686-45.072    C486.765,311.462,486.752,310.623,486.726,309.794z"/><g><path class="st0" d="M187.593,149.035c-1.234,0-2.486-0.305-3.641-0.947c-3.62-2.015-4.92-6.582-2.906-10.201     c6.011-10.799,7.837-20.058,5.428-27.518c-2.037-6.309-6.704-10.14-12.107-14.576c-6.374-5.234-13.599-11.167-15.915-21.727     c-2.454-11.188,1.681-23.668,12.29-37.091c2.569-3.25,7.287-3.803,10.535-1.233c3.25,2.568,3.802,7.285,1.234,10.534     c-7.686,9.725-10.851,17.993-9.407,24.577c1.144,5.215,4.843,8.469,10.782,13.347c6.314,5.185,13.472,11.062,16.862,21.56     c3.739,11.578,1.52,24.842-6.596,39.422C192.781,147.646,190.226,149.035,187.593,149.035z"/></g><g><path class="st0" d="M321.545,149.521c-1.757,0-3.521-0.613-4.944-1.863c-3.113-2.732-3.422-7.471-0.689-10.584     c8.118-9.25,11.83-17.898,11.031-25.705c-0.677-6.619-4.444-11.375-8.806-16.883c-5.131-6.479-10.947-13.822-11.009-24.625     c-0.064-11.471,6.586-22.786,19.767-33.633c3.198-2.633,7.925-2.172,10.557,1.025c2.632,3.198,2.172,7.925-1.026,10.557     c-9.526,7.839-14.336,15.229-14.298,21.966c0.03,5.357,2.972,9.341,7.768,15.397c5.084,6.419,10.847,13.695,11.969,24.669     c1.24,12.124-3.699,24.615-14.68,37.126C325.702,148.657,323.629,149.521,321.545,149.521z"/></g><g><path class="st0" d="M256.606,153.014c-1.229,0-2.474-0.302-3.625-0.939c-3.624-2.006-4.936-6.569-2.93-10.193     c7.322-13.229,10.081-25.203,8.197-35.586c-1.6-8.817-6.281-14.597-11.238-20.714c-5.666-6.994-12.088-14.922-13.34-27.263     c-1.336-13.182,3.75-27.328,15.119-42.046c2.533-3.279,7.241-3.885,10.521-1.351c3.278,2.532,3.883,7.242,1.351,10.521     c-8.943,11.577-13.003,22.129-12.066,31.362c0.8,7.889,4.892,12.939,10.072,19.334c5.651,6.975,12.056,14.881,14.341,27.479     c2.517,13.875-0.792,29.193-9.832,45.527C261.806,151.617,259.246,153.014,256.606,153.014z"/></g><g><path class="st20" d="M256,310.812c-4.142,0-7.5-3.357-7.5-7.5v-45.232c0-4.143,3.358-7.5,7.5-7.5s7.5,3.357,7.5,7.5v45.232     C263.5,307.454,260.142,310.812,256,310.812z"/></g><g><line class="st20" x1="311.893" x2="338.152" y1="258.595" y2="307.306"/><path class="st20" d="M338.158,314.807c-2.669,0-5.253-1.428-6.608-3.942l-26.258-48.711c-1.965-3.646-0.603-8.195,3.043-10.16     c3.645-1.966,8.195-0.604,10.161,3.043l26.258,48.711c1.965,3.646,0.603,8.195-3.043,10.16     C340.579,314.518,339.359,314.807,338.158,314.807z"/></g><g><line class="st20" x1="196.967" x2="172.612" y1="261.687" y2="300.734"/><path class="st20" d="M172.604,308.235c-1.355,0-2.727-0.367-3.962-1.138c-3.515-2.191-4.586-6.818-2.395-10.332l24.355-39.047     c2.192-3.517,6.818-4.588,10.333-2.395c3.515,2.191,4.586,6.818,2.395,10.332l-24.355,39.047     C177.554,306.983,175.107,308.235,172.604,308.235z"/></g></g><g><path d="M486.154,349.882h-0.808c4.63-9.301,8.893-22.061,8.917-37.56c0.001-0.931-0.012-1.852-0.041-2.762    c-0.767-24.594-13.967-47.157-35.311-60.358c-10.893-6.736-22.565-13.078-34.692-18.848c-3.74-1.78-8.215-0.189-9.995,3.55    c-1.78,3.741-0.19,8.216,3.55,9.995c11.633,5.534,22.818,11.611,33.247,18.061c17.054,10.547,27.599,28.517,28.208,48.068    c0.023,0.747,0.035,1.504,0.034,2.27c-0.027,17.019-6.262,30.021-11.135,37.584H146.149c-4.142,0-7.5,3.357-7.5,7.5    s3.358,7.5,7.5,7.5h325.928h14.077c5.98,0,10.846,4.996,10.846,11.138v18.606c0,3.531-2.258,5.347-3.229,5.963    c-0.922,0.586-3.384,1.796-6.342,0.406c-16.569-7.785-35.09-8.921-52.216-3.483c-0.437,0.137-0.871,0.284-1.305,0.429    c-0.661,0.224-1.321,0.448-1.977,0.691c-0.901,0.332-1.795,0.685-2.682,1.053c-0.324,0.135-0.646,0.273-0.968,0.412    c-1.093,0.473-2.179,0.963-3.249,1.49c0,0,0,0,0,0.001l-4.327,2.134c-0.309,0.153-0.624,0.291-0.938,0.428    c-5.091,2.227-10.816,2.502-16.053,0.826c-0.428-0.137-0.852-0.287-1.273-0.45c-0.841-0.326-1.667-0.703-2.472-1.132    c-20.229-10.781-44.614-11.246-65.229-1.242l-4.022,1.952c-4.362,2.115-9.158,2.766-13.785,1.957    c-2.114-0.37-4.192-1.043-6.178-2.023l-1.811-0.894l-3.576-1.765c-4.367-2.154-8.892-3.815-13.498-5.035    c-13.337-3.533-27.399-3.175-40.612,1.152c-2.539,0.832-5.047,1.809-7.512,2.932l-10.518,4.792    c-4.566,2.08-9.557,2.559-14.354,1.476c-1.081-0.244-2.156-0.541-3.21-0.947l-22.434-8.638    c-8.901-3.427-18.209-5.029-27.476-4.814c-8.109,0.187-16.186,1.764-23.932,4.724c-1.107,0.423-2.206,0.874-3.299,1.353    l-15.842,6.952c-5.643,2.477-11.895,2.572-17.607,0.268l-19.018-7.669c-0.031-0.012-0.063-0.022-0.094-0.035    c-0.99-0.398-1.99-0.766-2.996-1.119c-0.267-0.094-0.534-0.182-0.802-0.273c-0.89-0.3-1.785-0.583-2.685-0.848    c-0.154-0.045-0.308-0.094-0.462-0.138c-4.439-1.274-8.998-2.126-13.628-2.528c-0.122-0.01-0.243-0.002-0.364-0.007    c-12.053-0.971-24.308,1.076-35.465,6.121l-5.078,2.296c-2.078,0.939-4.372,0.767-6.295-0.475    c-2.025-1.307-3.187-3.471-3.187-5.936V376.02c0-6.142,4.865-11.138,10.846-11.138h11.1h74.203c4.142,0,7.5-3.357,7.5-7.5    s-3.358-7.5-7.5-7.5H41.488c-4.265-8.712-8.58-21.302-8.747-36.771c-0.027-2.536,0.06-5.104,0.259-7.628    c1.479-18.729,12.121-35.819,28.467-45.716c37.486-22.699,99.599-50.211,182.627-52.377c48.542-1.25,96.031,6.436,141.16,22.889    c3.892,1.42,8.197-0.586,9.616-4.477c1.419-3.892-0.586-8.196-4.477-9.615c-46.907-17.104-96.259-25.116-146.69-23.791    c-86.314,2.251-150.967,30.901-190.005,54.539c-20.465,12.392-33.792,33.837-35.651,57.367c-0.234,2.97-0.337,5.987-0.305,8.97    c0.157,14.593,3.457,27.002,7.345,36.629C11.186,350.31,0,361.865,0,376.02v18.966c0,7.546,3.758,14.477,10.054,18.539    c6.194,3.998,13.898,4.573,20.608,1.539l5.078-2.296c7.57-3.423,15.778-5.086,23.977-5.012l22.265,51.719    c10.243,23.794,33.405,39.168,59.008,39.168h230.022c25.603,0,48.765-15.374,59.008-39.168l21.555-50.069    c9.971-0.937,20.117,0.767,29.476,5.166c6.724,3.161,14.485,2.667,20.762-1.319c6.38-4.051,10.189-11.014,10.189-18.626V376.02    C512,361.608,500.405,349.882,486.154,349.882z M416.241,453.543c-7.872,18.285-25.626,30.1-45.23,30.1H140.989    c-19.604,0-37.359-11.814-45.23-30.1l-18.447-42.851c0.071,0.024,0.143,0.043,0.215,0.068c0.968,0.33,1.928,0.681,2.878,1.063    c0.014,0.006,0.028,0.01,0.043,0.016l19.018,7.669c9.35,3.77,20.009,3.609,29.245-0.443l15.842-6.952    c1.339-0.588,2.697-1.105,4.062-1.586c12.117-4.263,25.165-4.306,37.362-0.082c0.623,0.216,1.246,0.428,1.864,0.667l22.434,8.639    c0.58,0.223,1.163,0.43,1.748,0.623c0.138,0.046,0.277,0.084,0.415,0.128c0.444,0.141,0.888,0.279,1.334,0.403    c0.193,0.054,0.386,0.099,0.579,0.15c0.395,0.104,0.79,0.205,1.187,0.295c0.214,0.049,0.429,0.091,0.644,0.136    c0.377,0.079,0.753,0.156,1.131,0.223c0.228,0.041,0.456,0.075,0.685,0.111c0.366,0.058,0.732,0.113,1.099,0.16    c0.236,0.03,0.472,0.056,0.708,0.082c0.361,0.04,0.723,0.074,1.085,0.103c0.239,0.019,0.478,0.035,0.717,0.05    c0.36,0.021,0.72,0.037,1.081,0.049c0.24,0.007,0.48,0.014,0.721,0.017c0.141,0.001,0.282,0.01,0.423,0.01    c0.182,0,0.365-0.012,0.547-0.015c0.337-0.005,0.673-0.013,1.009-0.027c0.305-0.013,0.61-0.03,0.915-0.051    c0.339-0.022,0.678-0.05,1.017-0.082c0.3-0.028,0.6-0.059,0.899-0.095c0.344-0.041,0.686-0.088,1.029-0.139    c0.294-0.043,0.587-0.087,0.88-0.137c0.349-0.06,0.696-0.129,1.044-0.198c0.285-0.057,0.57-0.113,0.854-0.177    c0.357-0.08,0.712-0.171,1.067-0.263c0.273-0.07,0.546-0.136,0.817-0.212c0.374-0.105,0.745-0.222,1.117-0.339    c0.25-0.078,0.501-0.151,0.749-0.235c0.413-0.139,0.822-0.293,1.231-0.447c0.205-0.077,0.412-0.146,0.616-0.227    c0.612-0.242,1.22-0.498,1.823-0.773l10.518-4.792c15.607-7.111,33.382-6.835,48.769,0.755l5.388,2.657    c1.279,0.631,2.583,1.183,3.903,1.661c0.036,0.013,0.071,0.029,0.107,0.042c0.172,0.062,0.347,0.111,0.52,0.17    c6.637,2.277,13.69,2.653,20.465,1.106c0.525-0.12,1.046-0.262,1.567-0.405c0.169-0.046,0.34-0.083,0.509-0.132    c2.065-0.597,4.097-1.375,6.075-2.335l4.022-1.951c15.018-7.287,32.559-7.535,47.744-0.876c1.311,0.575,2.61,1.182,3.882,1.86    c10.693,5.699,23.562,5.901,34.427,0.542l4.326-2.134c0,0,0,0,0.001,0l0,0c0.004-0.002,0.009-0.004,0.013-0.006    c0.469-0.231,0.946-0.434,1.419-0.651L416.241,453.543z"/><path d="M174.367,95.791c5.403,4.438,10.07,8.269,12.107,14.578c2.41,7.46,0.583,16.718-5.428,27.517    c-2.015,3.619-0.714,8.186,2.905,10.2c1.155,0.644,2.407,0.948,3.641,0.948c2.633,0,5.188-1.389,6.56-3.854    c8.116-14.579,10.335-27.843,6.596-39.421c-3.39-10.499-10.547-16.376-16.862-21.562c-5.939-4.877-9.638-8.131-10.782-13.346    c-1.443-6.583,1.721-14.853,9.407-24.577c2.568-3.25,2.016-7.966-1.234-10.534c-3.25-2.569-7.966-2.017-10.535,1.233    c-10.609,13.424-14.744,25.903-12.29,37.091C160.769,84.625,167.993,90.558,174.367,95.791z"/><path d="M326.942,111.369c0.798,7.806-2.913,16.454-11.031,25.704c-2.732,3.113-2.424,7.852,0.689,10.584    c1.424,1.25,3.188,1.863,4.944,1.863c2.084,0,4.157-0.863,5.64-2.553c10.98-12.511,15.919-25.002,14.679-37.125    c-1.122-10.975-6.885-18.251-11.969-24.67c-4.796-6.056-7.737-10.039-7.767-15.396c-0.038-6.737,4.772-14.128,14.298-21.966    c3.198-2.632,3.658-7.357,1.026-10.557c-2.631-3.197-7.357-3.658-10.557-1.025c-13.181,10.845-19.831,22.161-19.767,33.632    c0.061,10.803,5.877,18.146,11.009,24.625C322.498,99.992,326.265,104.748,326.942,111.369z"/><path d="M247.011,85.581c4.956,6.117,9.637,11.896,11.237,20.713c1.883,10.384-0.875,22.356-8.197,35.586    c-2.006,3.624-0.694,8.188,2.93,10.193c1.151,0.638,2.397,0.939,3.625,0.939c2.64,0,5.2-1.396,6.569-3.869    c9.041-16.333,12.349-31.651,9.832-45.527c-2.285-12.597-8.689-20.503-14.34-27.478c-5.181-6.395-9.272-11.445-10.072-19.335    c-0.937-9.233,3.123-19.785,12.066-31.362c2.532-3.278,1.928-7.988-1.35-10.521c-3.278-2.531-7.987-1.927-10.52,1.351    c-11.37,14.719-16.457,28.864-15.12,42.046C234.922,70.66,241.344,78.587,247.011,85.581z"/><path d="M248.5,258.079v45.232c0,4.143,3.358,7.5,7.5,7.5s7.5-3.357,7.5-7.5v-45.232c0-4.143-3.358-7.5-7.5-7.5    S248.5,253.936,248.5,258.079z"/><path d="M308.334,251.993c-3.646,1.965-5.009,6.515-3.043,10.16l26.258,48.712c1.355,2.515,3.939,3.942,6.608,3.942    c1.202,0,2.421-0.289,3.552-0.899c3.646-1.965,5.009-6.515,3.043-10.16l-26.258-48.712    C316.53,251.389,311.979,250.027,308.334,251.993z"/><path d="M190.603,257.717l-24.355,39.047c-2.192,3.515-1.12,8.142,2.395,10.333c1.235,0.771,2.606,1.138,3.962,1.138    c2.502,0,4.949-1.252,6.371-3.531l24.355-39.047c2.192-3.515,1.12-8.142-2.395-10.333    C197.421,253.13,192.795,254.204,190.603,257.717z"/></g></g></svg>